<svg xmlns="http://www.w3.org/2000/svg" viewBox="0 0 512 512">
  <path fill="#FFFFFF" d="M256 0C114.6 0 0 114.6 0 256s114.6 256 256 256s256-114.6 256-256S397.4 0 256 0z"/>
  <path fill="#001e50" d="M256 30c124.7 0 226 101.3 226 226s-101.3 226-226 226S30 380.7 30 256S131.3 30 256 30"/>
  <path fill="#FFFFFF" d="M204.5 196.5l-58.9-18.1l38.1-47.7l54.9 10.8l13.4-59.8l58.9 18.1l-13.4 59.8l54.9 10.8l-38.1 47.7l-54.9-10.8l-13.4 59.8l-58.9-18.1l13.4-59.8l-54.9-10.8l38.1-47.7l54.9 10.8z"/>
  <path fill="#FFFFFF" d="M150 300c0-24.9 10-47.4 26.2-63.7l4.2 18.5c-11.2 12.8-18 29.5-18 47.8c0 39.8 32.2 72 72 72c18.4 0 35.1-6.8 47.8-18l18.5 4.2c-16.3 16.2-38.8 26.2-63.7 26.2c-49.7 0-90-40.3-90-90z"/>
  <path fill="#d20515" d="M325.8 236.3l-4.2-18.5c11.2-12.8 18-29.5 18-47.8c0-39.8-32.2-72-72-72c-18.4 0-35.1 6.8-47.8 18L201.3 112c16.3-16.2 38.8-26.2 63.7-26.2c49.7 0 90 40.3 90 90c0 24.9-10 47.4-26.2 63.7z"/>
</svg>
